<svg width="1600" height="940" viewBox="0 0 1600 940" fill="none" xmlns="http://www.w3.org/2000/svg">
  <rect width="1600" height="940" fill="#0E131D"/>
  <rect x="18" y="18" width="1564" height="904" rx="14" fill="#131722" stroke="#2A3344" stroke-width="2"/>

  <rect x="18" y="18" width="1564" height="42" rx="14" fill="#171D2A"/>
  <rect x="18" y="46" width="1564" height="14" fill="#171D2A"/>
  <text x="42" y="45" fill="#F5F7FA" font-family="Segoe UI, Arial, sans-serif" font-size="20" font-weight="700">cstudio</text>
  <text x="142" y="45" fill="#D6DDEA" font-family="Segoe UI, Arial, sans-serif" font-size="16">File</text>
  <text x="190" y="45" fill="#D6DDEA" font-family="Segoe UI, Arial, sans-serif" font-size="16">Workspace</text>
  <text x="290" y="45" fill="#D6DDEA" font-family="Segoe UI, Arial, sans-serif" font-size="16">Window</text>

  <rect x="390" y="24" width="320" height="28" rx="8" fill="#141B27" stroke="#2E3648"/>
  <text x="408" y="43" fill="#C8D0DD" font-family="Segoe UI, Arial, sans-serif" font-size="15">&lt;</text>
  <text x="432" y="43" fill="#8FD3A9" font-family="Segoe UI, Arial, sans-serif" font-size="15" font-weight="700">Pipeline Authoring</text>
  <text x="596" y="43" fill="#7E8CA4" font-family="Segoe UI, Arial, sans-serif" font-size="12">1 / 4</text>
  <text x="638" y="43" fill="#C8D0DD" font-family="Segoe UI, Arial, sans-serif" font-size="15">&gt;</text>
  <text x="662" y="43" fill="#6E7A90" font-family="Segoe UI, Arial, sans-serif" font-size="12">Author</text>

  <text x="738" y="45" fill="#8D98AE" font-family="Segoe UI, Arial, sans-serif" font-size="14">DagEdit Sample / Dag Canvas / Canvas / None</text>

  <rect x="1350" y="24" width="82" height="28" rx="8" fill="#20283A" stroke="#2E3648"/>
  <rect x="1438" y="24" width="88" height="28" rx="8" fill="#20283A" stroke="#2E3648"/>
  <text x="1370" y="43" fill="#7B8AA6" font-family="Segoe UI, Arial, sans-serif" font-size="13">Workspace</text>
  <text x="1460" y="43" fill="#8FD3A9" font-family="Segoe UI, Arial, sans-serif" font-size="13">DagEdit</text>

  <rect x="18" y="60" width="52" height="836" fill="#111722"/>
  <rect x="70" y="60" width="1" height="836" fill="#252D3E"/>
  <rect x="28" y="84" width="32" height="32" rx="8" fill="#263146"/>
  <rect x="28" y="130" width="32" height="32" rx="8" fill="#1B2331"/>
  <rect x="28" y="176" width="32" height="32" rx="8" fill="#1B2331"/>
  <rect x="28" y="222" width="32" height="32" rx="8" fill="#1B2331"/>
  <text x="39" y="105" fill="#EAF0F8" font-family="Segoe UI, Arial, sans-serif" font-size="14" font-weight="700">W</text>
  <text x="39" y="151" fill="#90A4C4" font-family="Segoe UI, Arial, sans-serif" font-size="14" font-weight="700">D</text>
  <text x="39" y="197" fill="#90A4C4" font-family="Segoe UI, Arial, sans-serif" font-size="14" font-weight="700">P</text>
  <text x="39" y="243" fill="#90A4C4" font-family="Segoe UI, Arial, sans-serif" font-size="14" font-weight="700">R</text>

  <rect x="82" y="72" width="278" height="804" rx="8" fill="#181E2A" stroke="#2E3648"/>
  <text x="102" y="99" fill="#AAB4C8" font-family="Segoe UI, Arial, sans-serif" font-size="12" letter-spacing="1.4">WORKSPACE</text>
  <rect x="102" y="116" width="238" height="118" rx="8" fill="#1E2533"/>
  <text x="118" y="141" fill="#F1F4F8" font-family="Segoe UI, Arial, sans-serif" font-size="16" font-weight="700">Graph Assets</text>
  <rect x="118" y="154" width="206" height="24" rx="4" fill="#141A25"/>
  <rect x="118" y="184" width="206" height="24" rx="4" fill="#141A25"/>
  <rect x="118" y="214" width="206" height="24" rx="4" fill="#141A25"/>
  <text x="130" y="171" fill="#B8C1D4" font-family="Segoe UI, Arial, sans-serif" font-size="13">FrameGraph/Main</text>
  <text x="130" y="201" fill="#B8C1D4" font-family="Segoe UI, Arial, sans-serif" font-size="13">Lighting/Resolve</text>
  <text x="130" y="231" fill="#B8C1D4" font-family="Segoe UI, Arial, sans-serif" font-size="13">Post/ToneMap</text>
  <rect x="102" y="248" width="238" height="118" rx="8" fill="#1E2533"/>
  <text x="118" y="273" fill="#F1F4F8" font-family="Segoe UI, Arial, sans-serif" font-size="16" font-weight="700">Role-Aware Tree</text>
  <text x="118" y="301" fill="#B8C1D4" font-family="Segoe UI, Arial, sans-serif" font-size="13">Authoring, Analysis, Admin, Ops</text>
  <text x="118" y="325" fill="#8FA1BF" font-family="Segoe UI, Arial, sans-serif" font-size="12">Left navigation changes with active workspace</text>

  <rect x="376" y="72" width="832" height="804" rx="8" fill="#121722" stroke="#2E3648"/>
  <rect x="376" y="72" width="832" height="38" rx="8" fill="#161C28"/>
  <rect x="376" y="100" width="832" height="10" fill="#161C28"/>
  <text x="396" y="97" fill="#F5F7FA" font-family="Segoe UI, Arial, sans-serif" font-size="15" font-weight="700">Dock Host</text>
  <text x="828" y="97" fill="#6E7A90" font-family="Segoe UI, Arial, sans-serif" font-size="13">DagEdit-backed pipeline editing workspace</text>

  <rect x="396" y="124" width="188" height="44" rx="8" fill="#1A2230"/>
  <rect x="592" y="124" width="188" height="44" rx="8" fill="#1A2230"/>
  <rect x="788" y="124" width="188" height="44" rx="8" fill="#1A2230"/>
  <text x="412" y="146" fill="#F2F5F8" font-family="Segoe UI, Arial, sans-serif" font-size="15" font-weight="700">Dag Canvas</text>
  <text x="412" y="160" fill="#8390A6" font-family="Segoe UI, Arial, sans-serif" font-size="12">Embedded editor</text>
  <text x="608" y="146" fill="#F2F5F8" font-family="Segoe UI, Arial, sans-serif" font-size="15" font-weight="700">Graph Overview</text>
  <text x="608" y="160" fill="#8390A6" font-family="Segoe UI, Arial, sans-serif" font-size="12">Summary</text>
  <text x="804" y="146" fill="#F2F5F8" font-family="Segoe UI, Arial, sans-serif" font-size="15" font-weight="700">Viewport State</text>
  <text x="804" y="160" fill="#8390A6" font-family="Segoe UI, Arial, sans-serif" font-size="12">Live sync</text>

  <rect x="396" y="182" width="792" height="488" rx="0" fill="#171D29" stroke="#252D3E"/>
  <text x="424" y="224" fill="#F6F8FB" font-family="Segoe UI, Arial, sans-serif" font-size="30" font-weight="700">Dag Canvas</text>
  <text x="424" y="250" fill="#7E8CA4" font-family="Segoe UI, Arial, sans-serif" font-size="14">DagEdit interactive shell sync over GPU-Reshape inspired shell</text>
  <text x="424" y="274" fill="#627089" font-family="Segoe UI, Arial, sans-serif" font-size="13">Stable shell, role workspace content switches with carousel controls</text>
  <rect x="456" y="318" width="160" height="80" rx="10" fill="#263146" stroke="#4A638A"/>
  <rect x="668" y="412" width="172" height="84" rx="10" fill="#263146" stroke="#4A638A"/>
  <rect x="900" y="340" width="176" height="88" rx="10" fill="#263146" stroke="#4A638A"/>
  <path d="M616 358C650 358 656 430 668 454" stroke="#8CA6D8" stroke-width="4"/>
  <path d="M840 454C874 454 880 384 900 384" stroke="#8CA6D8" stroke-width="4"/>
  <text x="493" y="363" fill="#EAF0F8" font-family="Segoe UI, Arial, sans-serif" font-size="16" font-weight="700">Source</text>
  <text x="724" y="460" fill="#EAF0F8" font-family="Segoe UI, Arial, sans-serif" font-size="16" font-weight="700">Resolve</text>
  <text x="968" y="390" fill="#EAF0F8" font-family="Segoe UI, Arial, sans-serif" font-size="16" font-weight="700">ToneMap</text>
  <text x="814" y="636" fill="#90A4C4" font-family="Segoe UI, Arial, sans-serif" font-size="13">Current role workspace controls the center content and left/right data sets</text>

  <rect x="396" y="686" width="792" height="170" rx="0" fill="#141925"/>
  <text x="416" y="714" fill="#AAB4C8" font-family="Segoe UI, Arial, sans-serif" font-size="12" letter-spacing="1.4">LOG</text>
  <text x="416" y="744" fill="#7F8AA0" font-family="Segoe UI, Arial, sans-serif" font-size="13">10:10:01</text>
  <text x="490" y="744" fill="#D6C37F" font-family="Segoe UI, Arial, sans-serif" font-size="13" font-weight="700">INFO</text>
  <text x="554" y="744" fill="#C8D0DD" font-family="Segoe UI, Arial, sans-serif" font-size="13">Role workspace transition host initialized</text>
  <text x="416" y="772" fill="#7F8AA0" font-family="Segoe UI, Arial, sans-serif" font-size="13">10:10:02</text>
  <text x="490" y="772" fill="#D6C37F" font-family="Segoe UI, Arial, sans-serif" font-size="13" font-weight="700">SYNC</text>
  <text x="554" y="772" fill="#C8D0DD" font-family="Segoe UI, Arial, sans-serif" font-size="13">Workspace switched to Pipeline Authoring</text>
  <text x="416" y="800" fill="#7F8AA0" font-family="Segoe UI, Arial, sans-serif" font-size="13">10:10:03</text>
  <text x="490" y="800" fill="#D6C37F" font-family="Segoe UI, Arial, sans-serif" font-size="13" font-weight="700">SYNC</text>
  <text x="554" y="800" fill="#C8D0DD" font-family="Segoe UI, Arial, sans-serif" font-size="13">Dock host, properties, and status were refreshed for the active role</text>

  <rect x="1224" y="72" width="340" height="804" rx="8" fill="#181D28" stroke="#2E3648"/>
  <text x="1244" y="99" fill="#AAB4C8" font-family="Segoe UI, Arial, sans-serif" font-size="12" letter-spacing="1.4">PROPERTIES</text>
  <rect x="1244" y="116" width="300" height="62" rx="6" fill="#111722"/>
  <text x="1260" y="142" fill="#EAF0F8" font-family="Segoe UI, Arial, sans-serif" font-size="16" font-weight="700">Selection Snapshot</text>
  <text x="1260" y="162" fill="#97A4BB" font-family="Segoe UI, Arial, sans-serif" font-size="12">Dag Canvas</text>
  <text x="1244" y="212" fill="#8E9BB0" font-family="Segoe UI, Arial, sans-serif" font-size="13">Workspace</text>
  <rect x="1348" y="196" width="196" height="28" rx="5" fill="#111722"/>
  <text x="1362" y="214" fill="#EEF2F8" font-family="Segoe UI, Arial, sans-serif" font-size="13">Pipeline Authoring</text>
  <text x="1244" y="254" fill="#8E9BB0" font-family="Segoe UI, Arial, sans-serif" font-size="13">Backend</text>
  <rect x="1348" y="238" width="196" height="28" rx="5" fill="#111722"/>
  <text x="1362" y="256" fill="#EEF2F8" font-family="Segoe UI, Arial, sans-serif" font-size="13">DagEdit Adapter</text>
  <text x="1244" y="296" fill="#8E9BB0" font-family="Segoe UI, Arial, sans-serif" font-size="13">Document Type</text>
  <rect x="1348" y="280" width="196" height="28" rx="5" fill="#111722"/>
  <text x="1362" y="298" fill="#EEF2F8" font-family="Segoe UI, Arial, sans-serif" font-size="13">Document</text>
  <text x="1244" y="338" fill="#8E9BB0" font-family="Segoe UI, Arial, sans-serif" font-size="13">Mode</text>
  <rect x="1348" y="322" width="196" height="28" rx="5" fill="#111722"/>
  <text x="1362" y="340" fill="#EEF2F8" font-family="Segoe UI, Arial, sans-serif" font-size="13">Workspace Transition</text>

  <rect x="18" y="896" width="1564" height="26" rx="0" fill="#0F141D"/>
  <text x="34" y="913" fill="#738198" font-family="Segoe UI, Arial, sans-serif" font-size="11">Sprint 06A Workspace Transition Foundation</text>
  <text x="260" y="913" fill="#96A3BA" font-family="Segoe UI, Arial, sans-serif" font-size="12">Scope: active role workspace switch</text>
  <text x="520" y="913" fill="#96A3BA" font-family="Segoe UI, Arial, sans-serif" font-size="12">Shortcut: Ctrl/Cmd + Alt + Left/Right</text>
  <text x="1278" y="913" fill="#8FD3A9" font-family="Segoe UI, Arial, sans-serif" font-size="12" font-weight="700">Pipeline Authoring</text>
  <text x="1416" y="913" fill="#8CA6D8" font-family="Segoe UI, Arial, sans-serif" font-size="12">DagEdit Live Sample</text>
</svg>
