<svg width="1280" height="760" viewBox="0 0 1280 760" fill="none" xmlns="http://www.w3.org/2000/svg">
  <rect width="1280" height="760" rx="18" fill="#0F141D"/>
  <rect x="0" y="0" width="1280" height="30" fill="#171D2A"/>
  <text x="18" y="20" fill="#F5F7FA" font-family="Segoe UI, Arial" font-size="14" font-weight="700">cstudio</text>
  <text x="108" y="20" fill="#D6DDEA" font-family="Segoe UI, Arial" font-size="13">File</text>
  <text x="150" y="20" fill="#D6DDEA" font-family="Segoe UI, Arial" font-size="13">Edit</text>
  <text x="195" y="20" fill="#D6DDEA" font-family="Segoe UI, Arial" font-size="13">View</text>
  <text x="265" y="20" fill="#8D98AE" font-family="Segoe UI, Arial" font-size="13">Workspace / Dag Graph Overview</text>
  <rect x="1115" y="7" width="68" height="18" rx="6" fill="#20283A" stroke="#2E3648"/>
  <text x="1127" y="20" fill="#8FD0FF" font-family="Segoe UI, Arial" font-size="11">DagEdit</text>
  <rect x="1191" y="7" width="72" height="18" rx="6" fill="#20283A" stroke="#2E3648"/>
  <text x="1204" y="20" fill="#D7E1F0" font-family="Segoe UI, Arial" font-size="11">Adapter</text>

  <rect x="0" y="30" width="52" height="705" fill="#111722"/>
  <rect x="10" y="46" width="32" height="32" rx="8" fill="#263146"/>
  <text x="21" y="66" fill="#EAF0F8" font-family="Segoe UI, Arial" font-size="14" font-weight="700">W</text>
  <rect x="10" y="88" width="32" height="32" rx="8" fill="#1B2331"/>
  <text x="21" y="108" fill="#90A4C4" font-family="Segoe UI, Arial" font-size="14" font-weight="700">D</text>
  <rect x="10" y="130" width="32" height="32" rx="8" fill="#1B2331"/>
  <text x="20" y="150" fill="#90A4C4" font-family="Segoe UI, Arial" font-size="14" font-weight="700">P</text>

  <rect x="62" y="40" width="270" height="685" rx="8" fill="#181E2A" stroke="#2E3648"/>
  <text x="78" y="64" fill="#AAB4C8" font-family="Segoe UI, Arial" font-size="12" font-weight="700">WORKSPACE</text>
  <rect x="78" y="82" width="238" height="108" rx="6" fill="#1E2533"/>
  <text x="92" y="104" fill="#F1F4F8" font-family="Segoe UI, Arial" font-size="14" font-weight="600">Graph Assets</text>
  <rect x="92" y="118" width="210" height="22" rx="4" fill="#141A25"/>
  <text x="102" y="133" fill="#B8C1D4" font-family="Segoe UI, Arial" font-size="12">Dag Canvas</text>
  <rect x="92" y="148" width="210" height="22" rx="4" fill="#141A25"/>
  <text x="102" y="163" fill="#B8C1D4" font-family="Segoe UI, Arial" font-size="12">Viewport State</text>

  <rect x="348" y="40" width="602" height="685" rx="8" fill="#121722" stroke="#2E3648"/>
  <rect x="348" y="40" width="602" height="36" fill="#161C28"/>
  <text x="364" y="62" fill="#F5F7FA" font-family="Segoe UI, Arial" font-size="14" font-weight="600">Dock Host</text>
  <text x="797" y="62" fill="#6E7A90" font-family="Segoe UI, Arial" font-size="12">Embedded DagEdit document workspace</text>

  <rect x="362" y="84" width="180" height="42" rx="8" fill="#223147"/>
  <text x="376" y="103" fill="#F2F5F8" font-family="Segoe UI, Arial" font-size="13" font-weight="600">Dag Canvas</text>
  <text x="376" y="118" fill="#8FA2BE" font-family="Segoe UI, Arial" font-size="11">Embedded DagEdit editor</text>
  <rect x="550" y="84" width="180" height="42" rx="8" fill="#1A2230"/>
  <text x="564" y="103" fill="#F2F5F8" font-family="Segoe UI, Arial" font-size="13" font-weight="600">Dag Graph Overview</text>
  <text x="564" y="118" fill="#8390A6" font-family="Segoe UI, Arial" font-size="11">DagEdit adapter</text>

  <rect x="366" y="140" width="566" height="396" rx="6" fill="#171D29" stroke="#252D3E"/>
  <text x="384" y="173" fill="#F6F8FB" font-family="Segoe UI, Arial" font-size="24" font-weight="700">Dag Canvas</text>
  <text x="384" y="195" fill="#7E8CA4" font-family="Segoe UI, Arial" font-size="13">Embedded canvas inside the cstudio shell</text>
  <rect x="384" y="214" width="530" height="36" rx="0" fill="#111722"/>
  <text x="398" y="236" fill="#F4F7FB" font-family="Segoe UI, Arial" font-size="13" font-weight="600">DagEdit Canvas</text>
  <rect x="777" y="221" width="121" height="22" rx="6" fill="#1C2433" stroke="#37445C"/>
  <text x="792" y="236" fill="#9EB3D6" font-family="Segoe UI, Arial" font-size="11">3 nodes / 2 links</text>
  <rect x="384" y="250" width="530" height="268" rx="0" fill="#0E131D"/>
  <circle cx="478" cy="337" r="34" fill="#30435E"/>
  <circle cx="635" cy="365" r="34" fill="#35587A"/>
  <circle cx="798" cy="430" r="34" fill="#476E94"/>
  <path d="M512 344C550 344 567 356 601 362" stroke="#6FA7D9" stroke-width="4" stroke-linecap="round"/>
  <path d="M669 372C711 380 731 398 764 420" stroke="#6FA7D9" stroke-width="4" stroke-linecap="round"/>
  <text x="462" y="341" fill="#EAF0F8" font-family="Segoe UI, Arial" font-size="11">N1</text>
  <text x="619" y="369" fill="#EAF0F8" font-family="Segoe UI, Arial" font-size="11">N2</text>
  <text x="782" y="434" fill="#EAF0F8" font-family="Segoe UI, Arial" font-size="11">N3</text>

  <rect x="366" y="544" width="566" height="164" fill="#141925"/>
  <text x="384" y="568" fill="#AAB4C8" font-family="Segoe UI, Arial" font-size="12" font-weight="700">LOG</text>
  <text x="384" y="596" fill="#7F8AA0" font-family="Segoe UI, Arial" font-size="12">09:41:12</text>
  <text x="456" y="596" fill="#D6C37F" font-family="Segoe UI, Arial" font-size="12" font-weight="600">INFO</text>
  <text x="520" y="596" fill="#C8D0DD" font-family="Segoe UI, Arial" font-size="12">Embedded DagEdit canvas initialized.</text>
  <text x="384" y="620" fill="#7F8AA0" font-family="Segoe UI, Arial" font-size="12">09:41:15</text>
  <text x="456" y="620" fill="#D6C37F" font-family="Segoe UI, Arial" font-size="12" font-weight="600">SYNC</text>
  <text x="520" y="620" fill="#C8D0DD" font-family="Segoe UI, Arial" font-size="12">Shell contracts still provide status and diagnostics.</text>

  <rect x="966" y="40" width="294" height="685" rx="8" fill="#181D28" stroke="#2E3648"/>
  <text x="982" y="64" fill="#AAB4C8" font-family="Segoe UI, Arial" font-size="12" font-weight="700">PROPERTIES</text>
  <rect x="982" y="82" width="262" height="54" rx="6" fill="#111722"/>
  <text x="996" y="103" fill="#EAF0F8" font-family="Segoe UI, Arial" font-size="13" font-weight="600">Selection Snapshot</text>
  <text x="996" y="121" fill="#97A4BB" font-family="Segoe UI, Arial" font-size="12">Dag Canvas</text>
  <text x="982" y="160" fill="#8E9BB0" font-family="Segoe UI, Arial" font-size="12">Adapter</text>
  <rect x="1060" y="146" width="184" height="24" rx="5" fill="#111722"/>
  <text x="1072" y="162" fill="#EEF2F8" font-family="Segoe UI, Arial" font-size="12">DagEdit embedded canvas</text>
  <text x="982" y="196" fill="#8E9BB0" font-family="Segoe UI, Arial" font-size="12">Nodes</text>
  <rect x="1060" y="182" width="184" height="24" rx="5" fill="#111722"/>
  <text x="1072" y="198" fill="#EEF2F8" font-family="Segoe UI, Arial" font-size="12">3</text>
  <text x="982" y="232" fill="#8E9BB0" font-family="Segoe UI, Arial" font-size="12">Connections</text>
  <rect x="1060" y="218" width="184" height="24" rx="5" fill="#111722"/>
  <text x="1072" y="234" fill="#EEF2F8" font-family="Segoe UI, Arial" font-size="12">2</text>

  <rect x="0" y="735" width="1280" height="25" fill="#0F141D"/>
  <text x="12" y="752" fill="#96A3BA" font-family="Segoe UI, Arial" font-size="12">Dag Canvas active</text>
  <text x="160" y="752" fill="#96A3BA" font-family="Segoe UI, Arial" font-size="12">Viewport 120,60</text>
  <text x="1174" y="752" fill="#96A3BA" font-family="Segoe UI, Arial" font-size="12">Scale 1.25</text>
</svg>
